<svg width="69" height="64" viewBox="0 0 69 64" fill="none" xmlns="http://www.w3.org/2000/svg">
<path d="M24.1834 35.2296L34.9929 51.1344L44.4023 35.2296H55.9568L51.9925 41.9305C44.8244 54.0469 25.7679 54.5605 17.8097 42.8519L12.6289 35.2296H24.1834H24.1834Z" fill="white"/>
<path d="M44.8178 27.9057L33.9081 12.0566L24.5992 28.0094L13.0449 28.0687L16.9669 21.3475C24.0584 9.1946 43.1113 8.58325 51.1433 20.2509L56.3721 27.8465L44.8178 27.9057Z" fill="white"/>
<path d="M24.744 27.9637L31.2863 28.0081C36.7988 28.0455 41.8398 30.8188 44.3974 35.2214V35.2214L37.8677 35.1771C31.8727 35.1365 27.0541 32.1227 24.5557 27.9694L24.744 27.9637Z" fill="white"/>
<path d="M34.5 60.6886C51.9229 60.6886 66.5 47.9002 66.5 31.5943C66.5 15.2884 51.9229 2.5 34.5 2.5C17.0771 2.5 2.5 15.2884 2.5 31.5943C2.5 47.9002 17.0771 60.6886 34.5 60.6886Z" stroke="white" stroke-width="5" stroke-miterlimit="10"/>
</svg>
