<svg width="299" height="65" viewBox="0 0 299 65" fill="none" xmlns="http://www.w3.org/2000/svg">
<path d="M24.1834 35.2296L34.9929 51.1344L44.4023 35.2296H55.9568L51.9925 41.9305C44.8244 54.0469 25.7679 54.5605 17.8097 42.8519L12.6289 35.2296H24.1834H24.1834Z" fill="white"/>
<path d="M44.8178 27.9057L33.9081 12.0566L24.5992 28.0094L13.0449 28.0687L16.9669 21.3475C24.0584 9.1946 43.1113 8.58325 51.1433 20.2509L56.3721 27.8465L44.8178 27.9057Z" fill="white"/>
<path d="M24.744 27.9637L31.2863 28.0081C36.7988 28.0455 41.8398 30.8188 44.3974 35.2214V35.2214L37.8677 35.1771C31.8727 35.1365 27.0541 32.1227 24.5557 27.9694L24.744 27.9637Z" fill="white"/>
<path d="M34.5 60.6886C51.9229 60.6886 66.5 47.9002 66.5 31.5943C66.5 15.2884 51.9229 2.5 34.5 2.5C17.0771 2.5 2.5 15.2884 2.5 31.5943C2.5 47.9002 17.0771 60.6886 34.5 60.6886Z" stroke="white" stroke-width="5" stroke-miterlimit="10"/>
<path d="M99.508 9.38C101.505 9.38 102.989 9.94 103.96 11.06C104.931 12.1613 105.416 13.5893 105.416 15.344C105.416 17.192 104.931 18.6853 103.96 19.824C103.008 20.944 101.524 21.504 99.508 21.504H93.908V28H89.624V9.38H99.508ZM98.164 18.2C99.1533 18.2 99.872 17.948 100.32 17.444C100.768 16.94 100.992 16.2493 100.992 15.372C100.992 13.58 100.059 12.684 98.192 12.684H93.908V18.2H98.164ZM112.037 9.38V24.612H120.745V28H107.753V9.38H112.037ZM141.581 28H137.297L135.953 24.192H127.609L126.265 28H121.981L128.533 9.38H135.029L141.581 28ZM131.781 12.32L128.757 20.916H134.805L131.781 12.32ZM157.298 9.38H161.386V28H154.33L148.506 15.288C148.058 14.28 147.704 13.328 147.442 12.432V28H143.354V9.38H150.41L156.29 22.288C156.664 23.1653 157 24.0613 157.298 24.976V9.38ZM168.884 20.076V24.612H179.328V28H164.628V9.38H179.244V12.74H168.884V16.912H178.404V20.076H168.884ZM180.772 9.38H197.292V12.74H191.16V28H186.904V12.74H180.772V9.38ZM100.768 39.38V42.74H97.324V54.612H100.768V58H89.624V54.612H93.068V42.74H89.624V39.38H100.768ZM117.759 39.38H121.847V58H114.791L108.967 45.288C108.519 44.28 108.165 43.328 107.903 42.432V58H103.815V39.38H110.871L116.751 52.288C117.125 53.1653 117.461 54.0613 117.759 54.976V39.38ZM144.939 46.828V39.38H149.195V58H144.939V50.16H136.399V58H132.171V39.38H136.399V46.828H144.939ZM161.486 58.476C159.209 58.476 157.333 58.0373 155.858 57.16C154.402 56.2827 153.338 55.1067 152.666 53.632C151.994 52.1573 151.658 50.5147 151.658 48.704C151.658 46.912 151.994 45.2787 152.666 43.804C153.338 42.3293 154.402 41.144 155.858 40.248C157.333 39.352 159.209 38.904 161.486 38.904C163.745 38.904 165.602 39.352 167.058 40.248C168.533 41.144 169.606 42.3293 170.278 43.804C170.95 45.2787 171.286 46.912 171.286 48.704C171.286 50.5147 170.95 52.1573 170.278 53.632C169.606 55.088 168.542 56.264 167.086 57.16C165.63 58.0373 163.764 58.476 161.486 58.476ZM156.11 48.704C156.11 50.832 156.512 52.4093 157.314 53.436C158.136 54.4627 159.526 54.976 161.486 54.976C163.446 54.976 164.828 54.4627 165.63 53.436C166.452 52.4093 166.862 50.832 166.862 48.704C166.862 46.5573 166.461 44.9707 165.658 43.944C164.856 42.8987 163.465 42.376 161.486 42.376C159.508 42.376 158.117 42.8987 157.314 43.944C156.512 44.9707 156.11 46.5573 156.11 48.704ZM173.731 39.38H177.987V50.44C177.987 51.616 178.137 52.54 178.435 53.212C178.734 53.8653 179.173 54.3227 179.751 54.584C180.349 54.8453 181.133 54.976 182.103 54.976C183.074 54.976 183.849 54.8453 184.427 54.584C185.025 54.3227 185.473 53.8653 185.771 53.212C186.07 52.54 186.219 51.616 186.219 50.44V39.38H190.447V51.028C190.447 53.4547 189.747 55.3027 188.347 56.572C186.947 57.8227 184.866 58.448 182.103 58.448C179.322 58.448 177.231 57.8227 175.831 56.572C174.431 55.3213 173.731 53.4733 173.731 51.028V39.38ZM197.224 51.868C197.28 52.932 197.654 53.772 198.344 54.388C199.054 55.004 200.108 55.312 201.508 55.312C202.852 55.312 203.814 55.0973 204.392 54.668C204.971 54.2387 205.26 53.632 205.26 52.848C205.26 52.1573 205.055 51.6253 204.644 51.252C204.234 50.86 203.608 50.608 202.768 50.496L198.652 49.964C196.991 49.7587 195.712 49.208 194.816 48.312C193.939 47.416 193.5 46.2027 193.5 44.672C193.5 42.9173 194.154 41.5173 195.46 40.472C196.786 39.4267 198.718 38.904 201.256 38.904C203.888 38.904 205.867 39.4547 207.192 40.556C208.518 41.6573 209.236 43.104 209.348 44.896H205.176C205.064 44 204.682 43.3 204.028 42.796C203.375 42.292 202.451 42.04 201.256 42.04C200.136 42.04 199.278 42.2547 198.68 42.684C198.083 43.0947 197.784 43.6733 197.784 44.42C197.784 44.9987 197.962 45.4747 198.316 45.848C198.671 46.2027 199.222 46.4173 199.968 46.492L203.86 46.968C207.65 47.3973 209.544 49.2173 209.544 52.428C209.544 56.46 206.847 58.476 201.452 58.476C198.615 58.476 196.524 57.8507 195.18 56.6C193.855 55.3493 193.155 53.772 193.08 51.868H197.224ZM216.571 50.076V54.612H227.015V58H212.315V39.38H226.931V42.74H216.571V46.912H226.091V50.076H216.571Z" fill="white"/>
<path d="M245.12 47.712C246.476 47.712 247.502 48.15 248.198 49.026C248.894 49.89 249.242 51.048 249.242 52.5C249.242 53.94 248.894 55.098 248.198 55.974C247.502 56.85 246.476 57.288 245.12 57.288C244.304 57.288 243.608 57.114 243.032 56.766C242.468 56.418 242.03 55.92 241.718 55.272V57H240.278V44.4H241.718V49.71C242.03 49.062 242.468 48.57 243.032 48.234C243.608 47.886 244.304 47.712 245.12 47.712ZM244.832 56.118C245.852 56.118 246.596 55.824 247.064 55.236C247.544 54.636 247.784 53.724 247.784 52.5C247.784 51.276 247.544 50.37 247.064 49.782C246.596 49.182 245.852 48.882 244.832 48.882C243.848 48.882 243.08 49.176 242.528 49.764C241.988 50.352 241.718 51.264 241.718 52.5C241.718 53.736 241.988 54.648 242.528 55.236C243.08 55.824 243.848 56.118 244.832 56.118ZM257.806 48H259.228L254.998 58.494C254.782 59.046 254.584 59.46 254.404 59.736C254.236 60.024 254.002 60.24 253.702 60.384C253.402 60.528 252.988 60.6 252.46 60.6H250.75V59.43H253.252L254.242 57H253.738L250.174 48H251.686L254.44 54.93L254.746 55.794L255.016 54.93L257.806 48ZM272.013 50.808C272.721 50.892 273.303 51.186 273.759 51.69C274.227 52.194 274.461 52.89 274.461 53.778C274.461 54.786 274.149 55.578 273.525 56.154C272.913 56.718 272.001 57 270.789 57H264.939V45.03H270.825C272.025 45.03 272.895 45.3 273.435 45.84C273.987 46.38 274.263 47.1 274.263 48C274.263 48.816 274.053 49.458 273.633 49.926C273.213 50.394 272.673 50.688 272.013 50.808ZM266.433 46.236V50.232H270.321C271.149 50.232 271.749 50.064 272.121 49.728C272.505 49.392 272.697 48.888 272.697 48.216C272.697 47.52 272.535 47.016 272.211 46.704C271.899 46.392 271.335 46.236 270.519 46.236H266.433ZM270.645 55.794C272.145 55.794 272.895 55.068 272.895 53.616C272.895 52.116 272.049 51.366 270.357 51.366H266.433V55.794H270.645ZM283.72 50.808C284.428 50.892 285.01 51.186 285.466 51.69C285.934 52.194 286.168 52.89 286.168 53.778C286.168 54.786 285.856 55.578 285.232 56.154C284.62 56.718 283.708 57 282.496 57H276.646V45.03H282.532C283.732 45.03 284.602 45.3 285.142 45.84C285.694 46.38 285.97 47.1 285.97 48C285.97 48.816 285.76 49.458 285.34 49.926C284.92 50.394 284.38 50.688 283.72 50.808ZM278.14 46.236V50.232H282.028C282.856 50.232 283.456 50.064 283.828 49.728C284.212 49.392 284.404 48.888 284.404 48.216C284.404 47.52 284.242 47.016 283.918 46.704C283.606 46.392 283.042 46.236 282.226 46.236H278.14ZM282.352 55.794C283.852 55.794 284.602 55.068 284.602 53.616C284.602 52.116 283.756 51.366 282.064 51.366H278.14V55.794H282.352ZM289.47 52.896C289.506 55.032 290.76 56.1 293.232 56.1C294.408 56.1 295.236 55.914 295.716 55.542C296.208 55.158 296.454 54.6 296.454 53.868C296.454 53.244 296.28 52.764 295.932 52.428C295.584 52.092 295.032 51.858 294.276 51.726L291.45 51.294C290.418 51.138 289.65 50.802 289.146 50.286C288.654 49.77 288.408 49.062 288.408 48.162C288.408 47.502 288.576 46.914 288.912 46.398C289.248 45.87 289.758 45.456 290.442 45.156C291.126 44.856 291.966 44.706 292.962 44.706C294.474 44.706 295.638 45.054 296.454 45.75C297.27 46.446 297.72 47.394 297.804 48.594H296.364C296.28 47.742 295.956 47.076 295.392 46.596C294.84 46.116 294.024 45.876 292.944 45.876C291.924 45.876 291.162 46.08 290.658 46.488C290.166 46.884 289.92 47.43 289.92 48.126C289.92 49.194 290.52 49.824 291.72 50.016L294.708 50.466C295.8 50.646 296.616 50.994 297.156 51.51C297.696 52.014 297.966 52.734 297.966 53.67C297.966 56.07 296.388 57.27 293.232 57.27C291.408 57.27 290.082 56.868 289.254 56.064C288.426 55.248 288.012 54.192 288.012 52.896H289.47Z" fill="#CACACA"/>
</svg>
